<svg width="1280" height="720" xmlns="http://www.w3.org/2000/svg" xmlns:xlink="http://www.w3.org/1999/xlink" overflow="hidden"><defs><clipPath id="clip0"><rect x="0" y="0" width="1280" height="720"/></clipPath></defs><g clip-path="url(#clip0)"><rect x="0" y="0" width="1280" height="720" fill="#FFFFFF"/><path d="M293 165.75 364.339 95 365 427.589 293 499 293 165.75Z" fill="#DAE3F3" fill-rule="evenodd"/><path d="M293.5 499.84 366.046 428.5 508.5 500.5 508.5 500.5 293.5 499.84Z" stroke="#2F528F" stroke-width="1.33333" stroke-miterlimit="8" fill="#4472C4" fill-rule="evenodd"/><path d="M293.5 165.849 366.046 95.5001 508.5 166.5 508.5 166.5 293.5 165.849Z" stroke="#2F528F" stroke-width="1.33333" stroke-miterlimit="8" fill="#4472C4" fill-rule="evenodd" fill-opacity="0.501961"/><path d="M293.5 166.5 293.5 500.177" stroke="#4472C4" stroke-width="0.666667" stroke-miterlimit="8" fill="none" fill-rule="evenodd"/><path d="M508.5 166.5 508.5 500.177" stroke="#4472C4" stroke-width="0.666667" stroke-miterlimit="8" fill="none" fill-rule="evenodd"/><path d="M366.5 95.5001 366.5 429.177" stroke="#4472C4" stroke-width="0.666667" stroke-miterlimit="8" stroke-dasharray="2.66667 2" fill="none" fill-rule="evenodd"/><rect x="293.5" y="165.5" width="215" height="334" stroke="#2F528F" stroke-width="1.33333" stroke-miterlimit="8" fill="#4472C4" fill-opacity="0.501961"/><text font-family="Cambria Math,Cambria Math_MSFontService,sans-serif" font-weight="400" font-size="24" transform="translate(380.441 527)">𝑎<tspan font-size="24" x="-70.069" y="-74">𝑎</tspan><tspan font-size="24" x="-118.4" y="-186">ℎ</tspan></text><rect x="571.5" y="283.5" width="216" height="216" stroke="#2F528F" stroke-width="1.33333" stroke-miterlimit="8" stroke-dasharray="1.33333 1.33333" fill="none"/><path d="M570.5 284.5 571.163 499.5 788.5 499.5 570.5 284.5Z" stroke="#2F528F" stroke-width="1.33333" stroke-miterlimit="8" fill="#4472C4" fill-rule="evenodd"/><text font-family="Cambria Math,Cambria Math_MSFontService,sans-serif" font-weight="400" font-size="24" transform="translate(676.552 527)">𝑎<tspan font-size="24" x="-126.4" y="-130">𝑎</tspan></text></g></svg>